<svg t="1659683189981" class="icon" viewBox="0 0 1024 1024" version="1.1" xmlns="http://www.w3.org/2000/svg" p-id="9359" width="200" height="200"><path d="M755.809524 2.096762H73.142857c-26.819048 0-48.761905 21.942857-48.761905 48.761905v146.285714c0 26.819048 21.942857 48.761905 48.761905 48.761905h682.666667c26.819048 0 48.761905-21.942857 48.761905-48.761905v-146.285714c0-26.819048-21.942857-48.761905-48.761905-48.761905zM755.809524 294.66819H73.142857c-26.819048 0-48.761905 21.942857-48.761905 48.761905v146.285715c0 26.819048 21.942857 48.761905 48.761905 48.761904h682.666667c26.819048 0 48.761905-21.942857 48.761905-48.761904v-146.285715c0-26.819048-21.942857-48.761905-48.761905-48.761905zM755.809524 587.239619H73.142857c-26.819048 0-48.761905 21.942857-48.761905 48.761905v146.285714c0 26.819048 21.942857 48.761905 48.761905 48.761905h682.666667c26.819048 0 48.761905-21.942857 48.761905-48.761905v-146.285714c0-26.819048-21.942857-48.761905-48.761905-48.761905z" fill="#D1C4E9" p-id="9360"></path><path d="M931.352381 760.344381c2.438095-9.752381 2.438095-19.504762 2.438095-26.819048 0-7.314286 0-19.504762-2.438095-26.819047l56.07619-41.447619c4.87619-4.87619 7.314286-12.190476 4.876191-17.066667l-56.076191-95.085714c-2.438095-4.87619-9.752381-7.314286-17.066666-4.876191l-63.390476 29.257143c-14.628571-12.190476-31.695238-21.942857-48.761905-29.257143l-7.314286-70.704762c0-7.314286-7.314286-12.190476-12.190476-12.190476h-109.714286c-7.314286 0-12.190476 4.87619-12.190476 12.190476l-7.314286 70.704762c-17.066667 7.314286-34.133333 17.066667-48.761904 29.257143l-63.390477-29.257143c-7.314286-2.438095-14.628571 0-17.066666 4.876191l-56.076191 95.085714c-2.438095 4.87619-2.438095 14.628571 4.876191 17.066667l56.07619 41.447619c-2.438095 9.752381-2.438095 19.504762-2.438095 26.819047 0 7.314286 0 19.504762 2.438095 26.819048l-56.07619 41.447619c-4.87619 4.87619-7.314286 12.190476-4.876191 17.066667l56.076191 95.085714c2.438095 4.87619 9.752381 7.314286 17.066666 4.87619l63.390477-29.257142c14.628571 12.190476 31.695238 21.942857 48.761904 29.257142l7.314286 70.704762c0 7.314286 7.314286 12.190476 12.190476 12.190477h109.714286c7.314286 0 12.190476-4.87619 12.190476-12.190477l7.314286-70.704762c17.066667-7.314286 34.133333-17.066667 48.761905-29.257142l63.390476 29.257142c7.314286 2.438095 14.628571 0 17.066666-4.87619l56.076191-95.085714c2.438095-4.87619 2.438095-14.628571-4.876191-17.066667l-56.07619-41.447619z m-199.92381 99.961905c-70.704762 0-126.780952-56.07619-126.780952-126.780953 0-70.704762 56.07619-126.780952 126.780952-126.780952 70.704762 0 126.780952 56.07619 126.780953 126.780952 0 70.704762-56.07619 126.780952-126.780953 126.780953z" fill="#607D8B" p-id="9361"></path><path d="M731.428571 587.239619c-80.457143 0-146.285714 65.828571-146.285714 146.285714s65.828571 146.285714 146.285714 146.285715 146.285714-65.828571 146.285715-146.285715-65.828571-146.285714-146.285715-146.285714z m0 219.428571c-41.447619 0-73.142857-31.695238-73.142857-73.142857s31.695238-73.142857 73.142857-73.142857 73.142857 31.695238 73.142858 73.142857-31.695238 73.142857-73.142858 73.142857z" fill="#455A64" p-id="9362"></path></svg>
