<svg t="1659086185681" class="icon" viewBox="0 0 1024 1024" version="1.1" xmlns="http://www.w3.org/2000/svg" p-id="23445" width="200" height="200"><path d="M512 0c282.624 0 512 229.376 512 512s-229.376 512-512 512S0 794.624 0 512 229.376 0 512 0z m302.08 665.6h-121.856v54.784h121.856V665.6z m-164.352 0h-121.856v54.784h121.856V665.6z m-159.744 0H193.536v54.784h296.448V665.6z m324.096-91.136h-121.856v54.784h121.856v-54.784z m-164.352 0h-121.856v54.784h121.856v-54.784z m-159.744 0H193.536v54.784h296.448v-54.784z m324.096-90.587429h-121.856v54.235429h121.856v-54.235429z m-164.352-0.036571h-121.856v54.272h121.856V483.84z m-159.744 0.036571H193.536v54.235429h296.448v-54.235429z m324.096-91.172571h-121.856v54.784h121.856v-54.784z m-164.352 0h-121.856v54.784h121.856v-54.784z m-159.744 0H193.536v54.784h296.448v-54.784z m324.096-91.136h-121.856v54.784h121.856V301.568z m-164.352 0h-121.856v54.784h121.856V301.568z m-159.744 0H193.536v54.784h296.448V301.568z" p-id="23446" fill="#1296db"></path></svg>
