<svg t="1658482973705" class="icon" viewBox="0 0 1024 1024" version="1.1" xmlns="http://www.w3.org/2000/svg" p-id="2373" width="200" height="200"><path d="M818.954142 380.096999v-40.320769h-46.713086v-40.566626c0-26.183914-21.266747-47.327731-47.327731-47.327731h-40.935414v-47.081873h-40.320768v47.081873h-61.095798v-47.081873H542.117647v47.081873h-61.095798v-47.081873h-40.320769v47.081873h-61.095798v-47.081873H339.284514v47.081873h-88.263145v87.894357h-46.713086v40.320769h46.713086v61.095798h-46.713086v40.320768h46.713086v61.095799h-46.713086v40.320768h46.713086v61.095798h-46.713086v40.320769h46.713086v41.181272c0 26.183914 21.266747 47.45066 47.45066 47.45066H339.284514v46.467227h40.320768v-46.467227h61.095798v46.467227h40.320769v-46.467227H542.117647v46.467227h40.320768v-46.467227h61.095799v46.467227h40.320768v-46.467227h88.263145v-88.631932h46.713085v-40.320769h-46.713085v-61.095798h46.713085v-40.320768h-46.713085v-61.095799h46.713085v-40.320768h-46.713085v-61.095798h46.836015z m-96.376471 343.095318H300.684754v-421.647059h421.769988v421.647059z" p-id="2374"></path><path d="M355.634094 356.248739h134.97623V491.716687H355.634094V356.248739zM532.283313 356.248739h135.345018V491.716687H532.283313V356.248739zM532.283313 533.512605h135.345018v134.115726H532.283313V533.512605zM355.634094 533.512605h134.97623v134.115726H355.634094V533.512605z" p-id="2375"></path></svg>
