<svg t="1659683560980" class="icon" viewBox="0 0 1024 1024" version="1.1" xmlns="http://www.w3.org/2000/svg" p-id="14679" width="200" height="200"><path d="M972.8 750.933333H682.666667v238.933334h153.6a17.066667 17.066667 0 0 1 0 34.133333h-648.533334a17.066667 17.066667 0 0 1 0-34.133333H341.333333v-238.933334H51.2A51.2 51.2 0 0 1 0 699.733333v-648.533333A51.2 51.2 0 0 1 51.2 0h921.6A51.2 51.2 0 0 1 1024 51.2v648.533333a51.2 51.2 0 0 1-51.2 51.2zM375.466667 989.866667h273.066666v-238.933334h-273.066666v238.933334zM989.866667 34.133333H34.133333v682.666667h955.733334V34.133333zM512 614.4a238.421333 238.421333 0 0 1-102.4-453.973333v38.570666a204.8 204.8 0 1 0 204.8 0V160.426667A238.421333 238.421333 0 0 1 512 614.4z m0-238.933333a34.133333 34.133333 0 0 1-34.133333-34.133334V170.666667a34.133333 34.133333 0 0 1 68.266666 0v170.666666a34.133333 34.133333 0 0 1-34.133333 34.133334z" fill="#bfbfbf" p-id="14680"></path></svg>
