<svg t="1658993282675" class="icon" viewBox="0 0 1024 1024" version="1.1" xmlns="http://www.w3.org/2000/svg" p-id="2211" width="200" height="200"><path d="M854.186667 306.602667l-242.887111-233.699556c-5.973333-5.688889-13.909333-8.903111-22.186667-8.903111H295.964444a8.021333 8.021333 0 0 0-7.992888 7.992889V128c0 4.408889 3.612444 7.992889 7.992888 7.992889h277.020445l218.993778 210.602667V824.035556c0 4.380444 3.584 7.992889 7.992889 7.992888h56.007111a8.021333 8.021333 0 0 0 7.992889-7.992888V329.585778c0-8.675556-3.498667-16.981333-9.813334-22.983111zM553.415111 201.386667a31.943111 31.943111 0 0 0-22.584889-9.386667H192c-17.692444 0-32 14.307556-32 32v704c0 17.692444 14.307556 32 32 32h512c17.692444 0 32-14.307556 32-32V397.312c0-8.533333-3.413333-16.611556-9.386667-22.613333l-173.226666-173.312z m14.620445 551.623111c0 3.783111-3.413333 6.997333-7.509334 6.997333h-224.995555c-4.096 0-7.509333-3.214222-7.509334-6.997333v-42.012445c0-3.783111 3.413333-6.997333 7.509334-6.997333h224.995555c4.096 0 7.509333 3.214222 7.509334 6.997333v42.012445z m0-220.017778c0 3.811556-3.413333 6.997333-7.509334 6.997333h-84.48v84.906667c0 3.896889-3.128889 7.111111-7.025778 7.111111h-41.984a7.111111 7.111111 0 0 1-6.997333-7.111111v-84.906667h-84.508444c-4.096 0-7.509333-3.185778-7.509334-6.997333v-41.984c0-3.896889 3.413333-6.997333 7.509334-6.997333h84.48V399.075556a7.111111 7.111111 0 0 1 7.025777-7.111112h41.984c3.896889 0 6.997333 3.214222 6.997334 7.111112v84.906666h84.508444c4.096 0 7.509333 3.100444 7.509334 6.997334v41.984z" p-id="2212"></path></svg>
