<svg t="1658483027051" class="icon" viewBox="0 0 1024 1024" version="1.1" xmlns="http://www.w3.org/2000/svg" p-id="3366" width="200" height="200"><path d="M512 595.904c46.368 0 83.936-37.568 83.936-83.904s-37.568-83.904-83.936-83.904c-46.336 0-83.936 37.536-83.936 83.904s37.568 83.904 83.936 83.904zM512 461.664c27.776 0 50.368 22.592 50.368 50.336s-22.592 50.336-50.368 50.336-50.368-22.592-50.368-50.336c0-27.744 22.592-50.336 50.368-50.336z" p-id="3367"></path><path d="M928.288 564.064c2.112-17.088 3.328-34.432 3.328-52.064 0-231.744-187.872-419.616-419.584-419.616l0 0c-0.032 0-0.032 0-0.032 0-159.136 0-297.568 88.608-368.704 219.136-0.064 0.16-0.16 0.288-0.256 0.448-1.344 2.464-2.56 5.024-3.84 7.52-4.928 9.536-9.6 19.232-13.824 29.184-0.64 1.504-1.184 3.04-1.792 4.576-20.032 48.992-31.168 102.56-31.168 158.752 0 231.744 187.872 419.616 419.616 419.616 208.48 0 381.376-152.096 413.984-351.36 0.896-5.376 1.632-10.784 2.304-16.192zM897.312 534.784c-0.128 2.304-0.352 4.576-0.512 6.848-0.384 5.344-0.896 10.688-1.536 15.968-0.288 2.464-0.608 4.96-0.928 7.424-0.768 5.44-1.632 10.816-2.624 16.192-0.352 1.952-0.64 3.936-1.056 5.888-1.472 7.36-3.072 14.656-4.96 21.856-0.032 0.064-0.032 0.096-0.064 0.16-1.824 7.104-3.936 14.112-6.176 21.024-0.544 1.76-1.184 3.52-1.792 5.28-1.792 5.344-3.712 10.624-5.76 15.84-0.704 1.824-1.408 3.68-2.176 5.504-2.304 5.632-4.704 11.168-7.232 16.64-0.512 1.152-0.992 2.304-1.536 3.424-3.232 6.816-6.624 13.536-10.272 20.128l-200.96-121.376c8.896-19.264 13.984-40.64 13.984-63.264 0-83.616-67.808-151.392-151.424-151.392-0.064 0-0.096 0.032-0.16 0.032s-0.128-0.032-0.192-0.032c-0.576 0-1.152 0.096-1.76 0.128-5.024 0.064-9.984 0.352-14.848 0.896-0.512 0.064-1.024 0.192-1.568 0.256-28.544 3.488-54.592 14.88-75.968 31.968l-166.56-166.592c33.44-30.688 72.32-55.488 114.976-72.96l0 0c22.464-9.184 45.984-16.352 70.304-21.216 0.352-0.064 0.704-0.128 1.056-0.192 5.696-1.12 11.456-2.144 17.216-3.008 1.248-0.192 2.528-0.32 3.808-0.48 4.928-0.704 9.856-1.344 14.848-1.856 2.592-0.256 5.248-0.384 7.872-0.608 3.712-0.288 7.424-0.64 11.168-0.832 6.208-0.32 12.448-0.448 18.72-0.48 0.224 0 0.48-0.032 0.736-0.032 192.896 0 353.216 142.208 381.568 327.328 2.944 19.136 4.448 38.752 4.448 58.72 0 7.648-0.288 15.264-0.736 22.784zM806.848 760.768c-4.128 4.928-8.416 9.696-12.768 14.4-0.8 0.832-1.6 1.632-2.368 2.464-4 4.192-8.064 8.32-12.224 12.32-0.928 0.896-1.856 1.76-2.816 2.656-4.256 4.032-8.576 7.936-13.024 11.744-0.8 0.704-1.6 1.408-2.4 2.112-5.056 4.288-10.24 8.448-15.488 12.48-0.16 0.096-0.32 0.224-0.48 0.352-11.36 8.64-23.232 16.672-35.552 24.064l-111.36-206.496c12.992-9.024 24.416-20.032 34.016-32.544l200.896 121.312c-7.904 11.904-16.48 23.264-25.632 34.208-0.256 0.32-0.544 0.608-0.832 0.96zM637.6 876.928c-4.96 1.728-9.952 3.36-15.008 4.896-1.92 0.576-3.904 1.12-5.856 1.664-4.608 1.312-9.28 2.528-13.952 3.68-2.208 0.512-4.448 1.056-6.688 1.536-4.544 1.024-9.12 1.92-13.728 2.784-2.304 0.416-4.608 0.864-6.912 1.248-4.736 0.8-9.472 1.44-14.24 2.08-2.208 0.256-4.384 0.576-6.56 0.832-5.344 0.576-10.688 1.056-16.096 1.408-1.664 0.096-3.296 0.256-4.96 0.352-7.136 0.384-14.336 0.608-21.568 0.608-206.208 0-375.2-162.496-385.536-366.176-0.352-6.592-0.512-13.184-0.512-19.84 0-6.528 0.192-13.024 0.48-19.488 0.256-4.928 0.672-9.824 1.088-14.72 0.128-1.44 0.192-2.88 0.32-4.288 3.808-37.856 13.152-74.112 27.104-107.968 0.032-0.192 0.096-0.352 0.128-0.512 17.408-42.144 42.08-80.576 72.448-113.696l166.592 166.592c-18.528 23.168-30.336 51.872-32.64 83.264-0.288 3.616-0.576 7.2-0.576 10.88 0 0.064 0.032 0.128 0.032 0.192s-0.032 0.128-0.032 0.16c0 83.616 67.776 151.424 151.392 151.424 20 0 39.008-3.968 56.48-10.976l111.392 206.624c-12.384 5.984-25.152 11.36-38.24 16.064-1.44 0.512-2.912 0.96-4.384 1.472zM629.472 512c0 64.8-52.704 117.472-117.504 117.472-64.736 0-117.376-52.576-117.472-117.28 0.096-64.832 52.8-117.568 117.664-117.664 64.704 0.096 117.312 52.736 117.312 117.472z" p-id="3368"></path></svg>
