<?xml version="1.0" standalone="no"?><!DOCTYPE svg PUBLIC "-//W3C//DTD SVG 1.1//EN" "http://www.w3.org/Graphics/SVG/1.1/DTD/svg11.dtd"><svg t="1635146336992" class="icon" viewBox="0 0 1024 1024" version="1.1" xmlns="http://www.w3.org/2000/svg" p-id="10732" xmlns:xlink="http://www.w3.org/1999/xlink" width="16" height="16"><defs><style type="text/css"></style></defs><path d="M512 512m-512 0a512 512 0 1 0 1024 0 512 512 0 1 0-1024 0Z" fill="#75B600" p-id="10733"></path><path d="M945.6 848H66.4c-4.8 0-8-3.2-8-8s3.2-8 8-8h879.2c4.8 0 8 3.2 8 8s-3.2 8-8 8z" fill="#46600E" p-id="10734"></path><path d="M736.8 770.4c0 35.2-28.8 64-64 64h-336c-35.2 0-64-28.8-64-64V214.4c0-35.2 28.8-64 64-64h336c35.2 0 64 28.8 64 64v556z" fill="#EAEAEA" p-id="10735"></path><path d="M672.8 752h-336c-35.2 0-64-28.8-64-64v85.6c0 35.2 28.8 64 64 64h336c35.2 0 64-28.8 64-64V688c0 35.2-28.8 64-64 64z" fill="#D4D6D6" p-id="10736"></path><path d="M784.8 320h-44c-4.8 0-8-3.2-8-8s3.2-8 8-8h44c13.6 0 23.2-9.6 23.2-23.2s-9.6-24-23.2-24h-44c-4.8 0-8-3.2-8-8s3.2-8 8-8h44c21.6 0 39.2 17.6 39.2 40s-16.8 39.2-39.2 39.2zM784.8 464h-44c-4.8 0-8-3.2-8-8s3.2-8 8-8h44c13.6 0 23.2-9.6 23.2-23.2s-9.6-24-23.2-24h-44c-4.8 0-8-3.2-8-8s3.2-8 8-8h44c21.6 0 39.2 17.6 39.2 40s-16.8 39.2-39.2 39.2zM784.8 608h-44c-4.8 0-8-3.2-8-8s3.2-8 8-8h44c13.6 0 23.2-8.8 23.2-21.6 0-14.4-10.4-26.4-23.2-26.4h-44c-4.8 0-8-3.2-8-8s3.2-8 8-8h44c21.6 0 39.2 19.2 39.2 42.4 0 21.6-16.8 37.6-39.2 37.6zM784.8 752h-44c-4.8 0-8-3.2-8-8s3.2-8 8-8h44c13.6 0 23.2-8.8 23.2-21.6 0-14.4-10.4-26.4-23.2-26.4h-44c-4.8 0-8-3.2-8-8s3.2-8 8-8h44c21.6 0 39.2 19.2 39.2 42.4 0 21.6-16.8 37.6-39.2 37.6z" fill="#46600E" p-id="10737"></path><path d="M672 848H336c-40 0-72-32-72-72V216c0-40 32-72 72-72h336c40 0 72 32 72 72v560c0 40-32 72-72 72zM336 160c-31.2 0-56 24.8-56 56v560c0 31.2 24.8 56 56 56h336c31.2 0 56-24.8 56-56V216c0-31.2-24.8-56-56-56H336z" fill="#46600E" p-id="10738"></path><path d="M653.6 328.8H355.2c-17.6 0-32-14.4-32-32v22.4c0 17.6 14.4 32 32 32h298.4c17.6 0 32-14.4 32-32v-22.4c0 17.6-14.4 32-32 32z" fill="#D4D6D6" p-id="10739"></path><path d="M656 336H360c-22.4 0-40-17.6-40-40v-40c0-22.4 17.6-40 40-40h296c22.4 0 40 17.6 40 40v40c0 22.4-17.6 40-40 40zM360 232c-13.6 0-24 10.4-24 24v40c0 13.6 10.4 24 24 24h296c13.6 0 24-10.4 24-24v-40c0-13.6-10.4-24-24-24H360z" fill="#46600E" p-id="10740"></path><path d="M562.4 304c-16.8 0-26.4-9.6-26.4-26.4 0-17.6 10.4-29.6 26.4-29.6 16.8 0 29.6 12.8 29.6 29.6 0 16-12 26.4-29.6 26.4z m0-40c-8.8 0-10.4 8.8-10.4 13.6 0 8 2.4 10.4 10.4 10.4 4.8 0 13.6-1.6 13.6-10.4 0-7.2-6.4-13.6-13.6-13.6zM634.4 304c-16.8 0-26.4-9.6-26.4-26.4 0-17.6 10.4-29.6 26.4-29.6 16.8 0 29.6 12.8 29.6 29.6 0 16-12 26.4-29.6 26.4z m0-40c-8.8 0-10.4 8.8-10.4 13.6 0 8 2.4 10.4 10.4 10.4 4.8 0 13.6-1.6 13.6-10.4 0-7.2-6.4-13.6-13.6-13.6z" fill="#46600E" p-id="10741"></path><path d="M444 284.8c0 8.8-7.2 16-16 16h-56c-8.8 0-16-7.2-16-16v-14.4c0-8.8 7.2-16 16-16h56c8.8 0 16 7.2 16 16v14.4z" fill="#FBD000" p-id="10742"></path><path d="M504 280h-24c-4.8 0-8-3.2-8-8s3.2-8 8-8h24c4.8 0 8 3.2 8 8s-3.2 8-8 8zM424 304h-48c-13.6 0-24-10.4-24-24v-8c0-13.6 10.4-24 24-24h48c13.6 0 24 10.4 24 24v8c0 13.6-10.4 24-24 24z m-48-40c-4.8 0-8 3.2-8 8v8c0 4.8 3.2 8 8 8h48c4.8 0 8-3.2 8-8v-8c0-4.8-3.2-8-8-8h-48z" fill="#46600E" p-id="10743"></path><path d="M653.6 472.8H355.2c-17.6 0-32-14.4-32-32v22.4c0 17.6 14.4 32 32 32h298.4c17.6 0 32-14.4 32-32v-22.4c0 17.6-14.4 32-32 32z" fill="#D4D6D6" p-id="10744"></path><path d="M656 480H360c-22.4 0-40-17.6-40-40v-40c0-22.4 17.6-40 40-40h296c22.4 0 40 17.6 40 40v40c0 22.4-17.6 40-40 40zM360 376c-13.6 0-24 10.4-24 24v40c0 13.6 10.4 24 24 24h296c13.6 0 24-10.4 24-24v-40c0-13.6-10.4-24-24-24H360z" fill="#46600E" p-id="10745"></path><path d="M562.4 448c-16.8 0-26.4-9.6-26.4-26.4 0-17.6 10.4-29.6 26.4-29.6 16.8 0 29.6 12.8 29.6 29.6 0 16-12 26.4-29.6 26.4z m0-40c-8.8 0-10.4 8.8-10.4 13.6 0 8 2.4 10.4 10.4 10.4 4.8 0 13.6-1.6 13.6-10.4 0-7.2-6.4-13.6-13.6-13.6zM634.4 448c-16.8 0-26.4-9.6-26.4-26.4 0-17.6 10.4-29.6 26.4-29.6 16.8 0 29.6 12.8 29.6 29.6 0 16-12 26.4-29.6 26.4z m0-40c-8.8 0-10.4 8.8-10.4 13.6 0 8 2.4 10.4 10.4 10.4 4.8 0 13.6-1.6 13.6-10.4 0-7.2-6.4-13.6-13.6-13.6z" fill="#46600E" p-id="10746"></path><path d="M444 428.8c0 8.8-7.2 16-16 16h-56c-8.8 0-16-7.2-16-16v-14.4c0-8.8 7.2-16 16-16h56c8.8 0 16 7.2 16 16v14.4z" fill="#FBD000" p-id="10747"></path><path d="M504 424h-24c-4.8 0-8-3.2-8-8s3.2-8 8-8h24c4.8 0 8 3.2 8 8s-3.2 8-8 8zM424 448h-48c-13.6 0-24-10.4-24-24v-8c0-13.6 10.4-24 24-24h48c13.6 0 24 10.4 24 24v8c0 13.6-10.4 24-24 24z m-48-40c-4.8 0-8 3.2-8 8v8c0 4.8 3.2 8 8 8h48c4.8 0 8-3.2 8-8v-8c0-4.8-3.2-8-8-8h-48z" fill="#46600E" p-id="10748"></path><path d="M653.6 616.8H355.2c-17.6 0-32-14.4-32-32v22.4c0 17.6 14.4 32 32 32h298.4c17.6 0 32-14.4 32-32v-22.4c0 17.6-14.4 32-32 32z" fill="#D4D6D6" p-id="10749"></path><path d="M656 624H360c-22.4 0-40-17.6-40-40v-40c0-22.4 17.6-40 40-40h296c22.4 0 40 17.6 40 40v40c0 22.4-17.6 40-40 40zM360 520c-13.6 0-24 10.4-24 24v40c0 13.6 10.4 24 24 24h296c13.6 0 24-10.4 24-24v-40c0-13.6-10.4-24-24-24H360z" fill="#46600E" p-id="10750"></path><path d="M562.4 592c-16.8 0-26.4-9.6-26.4-26.4 0-17.6 10.4-29.6 26.4-29.6 16.8 0 29.6 12.8 29.6 29.6 0 16-12 26.4-29.6 26.4z m0-40c-8.8 0-10.4 8.8-10.4 13.6 0 8 2.4 10.4 10.4 10.4 4.8 0 13.6-1.6 13.6-10.4 0-7.2-6.4-13.6-13.6-13.6zM634.4 592c-16.8 0-26.4-9.6-26.4-26.4 0-17.6 10.4-29.6 26.4-29.6 16.8 0 29.6 12.8 29.6 29.6 0 16-12 26.4-29.6 26.4z m0-40c-8.8 0-10.4 8.8-10.4 13.6 0 8 2.4 10.4 10.4 10.4 4.8 0 13.6-1.6 13.6-10.4 0-7.2-6.4-13.6-13.6-13.6z" fill="#46600E" p-id="10751"></path><path d="M444 572.8c0 8.8-7.2 16-16 16h-56c-8.8 0-16-7.2-16-16v-14.4c0-8.8 7.2-16 16-16h56c8.8 0 16 7.2 16 16v14.4z" fill="#FBD000" p-id="10752"></path><path d="M504 568h-24c-4.8 0-8-3.2-8-8s3.2-8 8-8h24c4.8 0 8 3.2 8 8s-3.2 8-8 8zM424 592h-48c-13.6 0-24-10.4-24-24v-8c0-13.6 10.4-24 24-24h48c13.6 0 24 10.4 24 24v8c0 13.6-10.4 24-24 24z m-48-40c-4.8 0-8 3.2-8 8v8c0 4.8 3.2 8 8 8h48c4.8 0 8-3.2 8-8v-8c0-4.8-3.2-8-8-8h-48zM656 768H360c-22.4 0-40-17.6-40-40v-40c0-22.4 17.6-40 40-40h296c22.4 0 40 17.6 40 40v40c0 22.4-17.6 40-40 40zM360 664c-13.6 0-24 10.4-24 24v40c0 13.6 10.4 24 24 24h296c13.6 0 24-10.4 24-24v-40c0-13.6-10.4-24-24-24H360z" fill="#46600E" p-id="10753"></path><path d="M562.4 736c-16.8 0-26.4-9.6-26.4-26.4 0-17.6 10.4-29.6 26.4-29.6 16.8 0 29.6 12.8 29.6 29.6 0 16-12 26.4-29.6 26.4z m0-40c-8.8 0-10.4 8.8-10.4 13.6 0 8 2.4 10.4 10.4 10.4 4.8 0 13.6-1.6 13.6-10.4 0-7.2-6.4-13.6-13.6-13.6zM634.4 736c-16.8 0-26.4-9.6-26.4-26.4 0-17.6 10.4-29.6 26.4-29.6 16.8 0 29.6 12.8 29.6 29.6 0 16-12 26.4-29.6 26.4z m0-40c-8.8 0-10.4 8.8-10.4 13.6 0 8 2.4 10.4 10.4 10.4 4.8 0 13.6-1.6 13.6-10.4 0-7.2-6.4-13.6-13.6-13.6z" fill="#46600E" p-id="10754"></path><path d="M444 716.8c0 8.8-7.2 16-16 16h-56c-8.8 0-16-7.2-16-16v-14.4c0-8.8 7.2-16 16-16h56c8.8 0 16 7.2 16 16v14.4z" fill="#FBD000" p-id="10755"></path><path d="M504 712h-24c-4.8 0-8-3.2-8-8s3.2-8 8-8h24c4.8 0 8 3.2 8 8s-3.2 8-8 8zM424 736h-48c-13.6 0-24-10.4-24-24v-8c0-13.6 10.4-24 24-24h48c13.6 0 24 10.4 24 24v8c0 13.6-10.4 24-24 24z m-48-40c-4.8 0-8 3.2-8 8v8c0 4.8 3.2 8 8 8h48c4.8 0 8-3.2 8-8v-8c0-4.8-3.2-8-8-8h-48z" fill="#46600E" p-id="10756"></path><path d="M120 464c-17.6 0-32-14.4-32-32s14.4-32 32-32 32 14.4 32 32-14.4 32-32 32z m0-48.8c-9.6 0-16.8 8-16.8 16.8 0 9.6 8 16.8 16.8 16.8 9.6 0 16.8-8 16.8-16.8 0-9.6-7.2-16.8-16.8-16.8zM969.6 496.8c0-3.2-3.2-6.4-8-7.2l-15.2-2.4c-4-0.8-8.8-4.8-8.8-8.8l-2.4-15.2c-0.8-4-4-8-7.2-8s-6.4 3.2-7.2 8l-2.4 15.2c-0.8 4-4.8 8.8-8.8 8.8l-15.2 2.4c-4 0.8-8 4-8 7.2s3.2 6.4 8 7.2l15.2 2.4c4 0.8 8.8 4.8 8.8 8.8l2.4 15.2c0.8 4 4 8 7.2 8s6.4-3.2 6.4-8l2.4-16.8c0.8-4 4.8-8 8.8-8.8l14.4-0.8c5.6-0.8 9.6-4 9.6-7.2zM198.4 654.4c0-3.2-3.2-6.4-8-7.2l-14.4-1.6c-4-0.8-8.8-4.8-8.8-8.8l-2.4-15.2c-0.8-4-4-8-7.2-8s-6.4 3.2-7.2 8l-2.4 15.2c-0.8 4-4.8 8.8-8.8 8.8l-15.2 2.4c-4 0.8-8 4-8 7.2s3.2 6.4 8 7.2l15.2 2.4c4 0.8 8.8 4.8 8.8 8.8l2.4 15.2c0.8 4 4 8 7.2 8s6.4-3.2 6.4-8l2.4-16.8c0.8-4 4.8-8 8.8-8.8l14.4-0.8c5.6-2.4 8.8-4.8 8.8-8z" fill="#FFFFFF" opacity=".5" p-id="10757"></path><path d="M710.4 680c-4.8 0-8-3.2-8-8V230.4c0-27.2-11.2-38.4-40-38.4H472c-4.8 0-8-3.2-8-8s3.2-8 8-8h190.4c36.8 0 56 18.4 56 54.4V672c0 4.8-3.2 8-8 8zM421.6 192h-72c-4.8 0-8-3.2-8-8s3.2-8 8-8h72c4.8 0 8 3.2 8 8s-4 8-8 8z" fill="#FFFFFF" p-id="10758"></path></svg>