<svg xmlns="http://www.w3.org/2000/svg" xmlns:xlink="http://www.w3.org/1999/xlink" aria-hidden="true" role="img" width="1em" height="1em" preserveAspectRatio="xMidYMid meet" viewBox="0 0 24 24"><path d="M21.07 10.3l-6-6a.75.75 0 0 0-.53-.22H3a.76.76 0 0 0-.75.75v7.88a.75.75 0 0 0 .22.53l6 6a2.31 2.31 0 0 0 1.65.68a2.34 2.34 0 0 0 1.64-.68L12 19a1.14 1.14 0 0 0 .15.23a2.33 2.33 0 0 0 3.29 0l5.65-5.66a2.33 2.33 0 0 0-.02-3.27zM10.7 18.17a.81.81 0 0 1-1.17 0L3.75 12.4V5.58h6.82l5.78 5.78a.83.83 0 0 1 0 1.17zm9.3-5.65l-5.65 5.65a.82.82 0 0 1-1.17 0A.54.54 0 0 0 13 18l4.44-4.45a2.33 2.33 0 0 0 0-3.28l-4.75-4.69h1.54L20 11.36a.82.82 0 0 1 0 1.16z" fill="currentColor"/><circle cx="7" cy="8.5" r="1.25" fill="currentColor"/></svg>
