<?xml version="1.0" standalone="no"?><!DOCTYPE svg PUBLIC "-//W3C//DTD SVG 1.1//EN" "http://www.w3.org/Graphics/SVG/1.1/DTD/svg11.dtd"><svg t="1635145931216" class="icon" viewBox="0 0 1024 1024" version="1.1" xmlns="http://www.w3.org/2000/svg" p-id="8541" width="16" height="16" xmlns:xlink="http://www.w3.org/1999/xlink"><defs><style type="text/css"></style></defs><path d="M183.902041 243.809524h782.976871v104.489796H183.902041z" fill="#3973F4" p-id="8542"></path><path d="M966.182313 298.840816H183.902041V271.673469l782.280272-84.985034z" fill="#2767F4" p-id="8543"></path><path d="M65.480272 278.639456v-34.829932h782.280272v105.186394H65.480272v-36.223129" fill="#4988FD" p-id="8544"></path><path d="M65.480272 262.617687h782.976871v35.526531H65.480272z" fill="#3973F4" p-id="8545"></path><path d="M956.429932 268.887075H71.053061C49.458503 268.887075 31.346939 250.77551 31.346939 229.180952V44.582313C31.346939 22.987755 49.458503 4.87619 71.053061 4.87619h885.376871c21.594558 0 39.706122 18.111565 39.706122 39.706123v184.598639c0 22.291156-18.111565 39.706122-39.706122 39.706123z" fill="#3973F4" p-id="8546"></path><path d="M144.195918 4.87619h686.846259c15.32517 0 28.560544 12.538776 28.560544 27.863946v207.586395c0 15.32517-12.538776 28.560544-28.560544 28.560544H59.210884c-15.32517 0-28.560544-12.538776-28.560544-28.560544V32.740136c0-15.32517 12.538776-27.863946 28.560544-27.863946h18.808164" fill="#6097FD" p-id="8547"></path><path d="M356.261442 93.713415m-7.881114 7.881114a11.145578 11.145578 0 1 0 15.762228-15.762228 11.145578 11.145578 0 1 0-15.762228 15.762228Z" fill="#3973F4" p-id="8548"></path><path d="M356.31921 143.842693m-7.881114 7.881114a11.145578 11.145578 0 1 0 15.762228-15.762228 11.145578 11.145578 0 1 0-15.762228 15.762228Z" fill="#3973F4" p-id="8549"></path><path d="M356.38683 193.967891m-7.881114 7.881114a11.145578 11.145578 0 1 0 15.762228-15.762228 11.145578 11.145578 0 1 0-15.762228 15.762228Z" fill="#3973F4" p-id="8550"></path><path d="M406.291156 120.859864m-7.881113 7.881114a11.145578 11.145578 0 1 0 15.762227-15.762228 11.145578 11.145578 0 1 0-15.762227 15.762228Z" fill="#3973F4" p-id="8551"></path><path d="M406.35385 170.987102m-7.881114 7.881114a11.145578 11.145578 0 1 0 15.762228-15.762228 11.145578 11.145578 0 1 0-15.762228 15.762228Z" fill="#3973F4" p-id="8552"></path><path d="M456.508952 93.588027m-7.881114 7.881114a11.145578 11.145578 0 1 0 15.762228-15.762228 11.145578 11.145578 0 1 0-15.762228 15.762228Z" fill="#3973F4" p-id="8553"></path><path d="M456.583538 143.713225m-7.881114 7.881114a11.145578 11.145578 0 1 0 15.762228-15.762228 11.145578 11.145578 0 1 0-15.762228 15.762228Z" fill="#3973F4" p-id="8554"></path><path d="M456.643346 193.840463m-7.881114 7.881114a11.145578 11.145578 0 1 0 15.762228-15.762228 11.145578 11.145578 0 1 0-15.762228 15.762228Z" fill="#3973F4" p-id="8555"></path><path d="M506.044082 121.222095m-7.881114 7.881114a11.145578 11.145578 0 1 0 15.762228-15.762228 11.145578 11.145578 0 1 0-15.762228 15.762228Z" fill="#3973F4" p-id="8556"></path><path d="M506.113741 171.349333m-7.881113 7.881114a11.145578 11.145578 0 1 0 15.762227-15.762228 11.145578 11.145578 0 1 0-15.762227 15.762228Z" fill="#3973F4" p-id="8557"></path><path d="M556.27581 93.943293m-7.881114 7.881113a11.145578 11.145578 0 1 0 15.762227-15.762227 11.145578 11.145578 0 1 0-15.762227 15.762227Z" fill="#3973F4" p-id="8558"></path><path d="M556.338503 144.070531m-7.881114 7.881114a11.145578 11.145578 0 1 0 15.762228-15.762228 11.145578 11.145578 0 1 0-15.762228 15.762228Z" fill="#3973F4" p-id="8559"></path><path d="M556.408163 194.204735m-7.881114 7.881114a11.145578 11.145578 0 1 0 15.762228-15.762228 11.145578 11.145578 0 1 0-15.762228 15.762228Z" fill="#3973F4" p-id="8560"></path><path d="M606.305524 121.089741m-7.881114 7.881114a11.145578 11.145578 0 1 0 15.762228-15.762227 11.145578 11.145578 0 1 0-15.762228 15.762227Z" fill="#3973F4" p-id="8561"></path><path d="M606.368218 171.21698m-7.881114 7.881114a11.145578 11.145578 0 1 0 15.762228-15.762228 11.145578 11.145578 0 1 0-15.762228 15.762228Z" fill="#3973F4" p-id="8562"></path><path d="M656.530286 93.810939m-7.881114 7.881114a11.145578 11.145578 0 1 0 15.762228-15.762228 11.145578 11.145578 0 1 0-15.762228 15.762228Z" fill="#3973F4" p-id="8563"></path><path d="M656.59298 143.938177m-7.881114 7.881114a11.145578 11.145578 0 1 0 15.762228-15.762228 11.145578 11.145578 0 1 0-15.762228 15.762228Z" fill="#3973F4" p-id="8564"></path><path d="M656.662639 194.072381m-7.881113 7.881114a11.145578 11.145578 0 1 0 15.762227-15.762228 11.145578 11.145578 0 1 0-15.762227 15.762228Z" fill="#3973F4" p-id="8565"></path><path d="M706.56 120.957388m-7.881114 7.881114a11.145578 11.145578 0 1 0 15.762228-15.762228 11.145578 11.145578 0 1 0-15.762228 15.762228Z" fill="#3973F4" p-id="8566"></path><path d="M706.622694 171.084626m-7.881114 7.881114a11.145578 11.145578 0 1 0 15.762228-15.762228 11.145578 11.145578 0 1 0-15.762228 15.762228Z" fill="#3973F4" p-id="8567"></path><path d="M756.784762 93.685551m-7.881114 7.881114a11.145578 11.145578 0 1 0 15.762228-15.762228 11.145578 11.145578 0 1 0-15.762228 15.762228Z" fill="#3973F4" p-id="8568"></path><path d="M756.849496 143.817715m-7.881114 7.881114a11.145578 11.145578 0 1 0 15.762228-15.762228 11.145578 11.145578 0 1 0-15.762228 15.762228Z" fill="#3973F4" p-id="8569"></path><path d="M756.922041 193.937987m-7.881114 7.881114a11.145578 11.145578 0 1 0 15.762228-15.762228 11.145578 11.145578 0 1 0-15.762228 15.762228Z" fill="#3973F4" p-id="8570"></path><path d="M174.846259 148.37551m-54.334694 0a54.334694 54.334694 0 1 0 108.669387 0 54.334694 54.334694 0 1 0-108.669387 0Z" fill="#3973F4" p-id="8571"></path><path d="M183.902041 580.963265h782.976871v104.489796H183.902041z" fill="#3973F4" p-id="8572"></path><path d="M966.182313 635.297959H183.902041v-27.167347l782.280272-8.359183z" fill="#2767F4" p-id="8573"></path><path d="M65.480272 615.793197v-34.829932h782.280272v104.489796H65.480272v-35.52653" fill="#4988FD" p-id="8574"></path><path d="M65.480272 595.591837h782.976871v39.706122H65.480272z" fill="#3973F4" p-id="8575"></path><path d="M956.429932 606.040816H71.053061C49.458503 606.040816 31.346939 587.929252 31.346939 566.334694V381.736054c0-21.594558 18.111565-39.706122 39.706122-39.706122h885.376871c21.594558 0 39.706122 18.111565 39.706122 39.706122v184.59864c0 21.594558-18.111565 39.706122-39.706122 39.706122z" fill="#3973F4" p-id="8576"></path><path d="M144.195918 342.029932h686.846259c15.32517 0 28.560544 12.538776 28.560544 27.863946v207.586394c0 15.32517-12.538776 28.560544-28.560544 28.560544H59.210884C43.885714 606.040816 30.65034 593.502041 30.65034 577.480272V369.893878c0-15.32517 12.538776-27.863946 28.560544-27.863946h18.808164" fill="#6097FD" p-id="8577"></path><path d="M356.031565 430.268082m-7.881114 7.881114a11.145578 11.145578 0 1 0 15.762228-15.762228 11.145578 11.145578 0 1 0-15.762228 15.762228Z" fill="#3973F4" p-id="8578"></path><path d="M356.094259 480.39532m-7.881114 7.881114a11.145578 11.145578 0 1 0 15.762227-15.762228 11.145578 11.145578 0 1 0-15.762227 15.762228Z" fill="#3973F4" p-id="8579"></path><path d="M356.156952 530.522558m-7.881114 7.881114a11.145578 11.145578 0 1 0 15.762228-15.762228 11.145578 11.145578 0 1 0-15.762228 15.762228Z" fill="#3973F4" p-id="8580"></path><path d="M406.054313 457.407565m-7.881114 7.881114a11.145578 11.145578 0 1 0 15.762228-15.762228 11.145578 11.145578 0 1 0-15.762228 15.762228Z" fill="#3973F4" p-id="8581"></path><path d="M406.123973 507.534803m-7.881114 7.881114a11.145578 11.145578 0 1 0 15.762228-15.762228 11.145578 11.145578 0 1 0-15.762228 15.762228Z" fill="#3973F4" p-id="8582"></path><path d="M456.279075 430.135728m-7.881114 7.881114a11.145578 11.145578 0 1 0 15.762228-15.762228 11.145578 11.145578 0 1 0-15.762228 15.762228Z" fill="#3973F4" p-id="8583"></path><path d="M456.346694 480.25804m-7.881114 7.881114a11.145578 11.145578 0 1 0 15.762228-15.762228 11.145578 11.145578 0 1 0-15.762228 15.762228Z" fill="#3973F4" p-id="8584"></path><path d="M456.411429 530.390204m-7.881114 7.881114a11.145578 11.145578 0 1 0 15.762228-15.762228 11.145578 11.145578 0 1 0-15.762228 15.762228Z" fill="#3973F4" p-id="8585"></path><path d="M505.82117 457.769796m-7.881114 7.881114a11.145578 11.145578 0 1 0 15.762228-15.762228 11.145578 11.145578 0 1 0-15.762228 15.762228Z" fill="#3973F4" p-id="8586"></path><path d="M505.88879 507.894994m-7.881114 7.881114a11.145578 11.145578 0 1 0 15.762228-15.762228 11.145578 11.145578 0 1 0-15.762228 15.762228Z" fill="#3973F4" p-id="8587"></path><path d="M556.045932 430.497959m-7.881114 7.881114a11.145578 11.145578 0 1 0 15.762228-15.762228 11.145578 11.145578 0 1 0-15.762228 15.762228Z" fill="#3973F4" p-id="8588"></path><path d="M556.108626 480.618231m-7.881114 7.881114a11.145578 11.145578 0 1 0 15.762228-15.762228 11.145578 11.145578 0 1 0-15.762228 15.762228Z" fill="#3973F4" p-id="8589"></path><path d="M556.17132 530.752435m-7.881114 7.881114a11.145578 11.145578 0 1 0 15.762228-15.762228 11.145578 11.145578 0 1 0-15.762228 15.762228Z" fill="#3973F4" p-id="8590"></path><path d="M606.075646 457.637442m-7.881114 7.881114a11.145578 11.145578 0 1 0 15.762228-15.762228 11.145578 11.145578 0 1 0-15.762228 15.762228Z" fill="#3973F4" p-id="8591"></path><path d="M606.13834 507.76468m-7.881114 7.881114a11.145578 11.145578 0 1 0 15.762228-15.762228 11.145578 11.145578 0 1 0-15.762228 15.762228Z" fill="#3973F4" p-id="8592"></path><path d="M656.305334 430.363565m-7.881114 7.881114a11.145578 11.145578 0 1 0 15.762228-15.762228 11.145578 11.145578 0 1 0-15.762228 15.762228Z" fill="#3973F4" p-id="8593"></path><path d="M656.363102 480.492844m-7.881114 7.881113a11.145578 11.145578 0 1 0 15.762228-15.762227 11.145578 11.145578 0 1 0-15.762228 15.762227Z" fill="#3973F4" p-id="8594"></path><path d="M656.432762 530.620082m-7.881114 7.881114a11.145578 11.145578 0 1 0 15.762228-15.762228 11.145578 11.145578 0 1 0-15.762228 15.762228Z" fill="#3973F4" p-id="8595"></path><path d="M706.330122 457.505088m-7.881113 7.881114a11.145578 11.145578 0 1 0 15.762227-15.762228 11.145578 11.145578 0 1 0-15.762227 15.762228Z" fill="#3973F4" p-id="8596"></path><path d="M706.392816 507.632327m-7.881114 7.881113a11.145578 11.145578 0 1 0 15.762228-15.762227 11.145578 11.145578 0 1 0-15.762228 15.762227Z" fill="#3973F4" p-id="8597"></path><path d="M756.554884 430.233252m-7.881114 7.881114a11.145578 11.145578 0 1 0 15.762228-15.762228 11.145578 11.145578 0 1 0-15.762228 15.762228Z" fill="#3973F4" p-id="8598"></path><path d="M756.617578 480.36049m-7.881114 7.881114a11.145578 11.145578 0 1 0 15.762228-15.762228 11.145578 11.145578 0 1 0-15.762228 15.762228Z" fill="#3973F4" p-id="8599"></path><path d="M756.687238 530.487728m-7.881114 7.881114a11.145578 11.145578 0 1 0 15.762228-15.762228 11.145578 11.145578 0 1 0-15.762228 15.762228Z" fill="#3973F4" p-id="8600"></path><path d="M174.846259 485.529252m-54.334694 0a54.334694 54.334694 0 1 0 108.669387 0 54.334694 54.334694 0 1 0-108.669387 0Z" fill="#3973F4" p-id="8601"></path><path d="M183.902041 917.420408h782.976871v104.489796H183.902041z" fill="#3973F4" p-id="8602"></path><path d="M966.182313 972.451701H183.902041v-27.167347l782.280272-85.681633z" fill="#2767F4" p-id="8603"></path><path d="M65.480272 952.25034v-34.829932h782.280272v105.186395H65.480272v-36.22313" fill="#4988FD" p-id="8604"></path><path d="M65.480272 918.117007h782.976871v53.638095H65.480272z" fill="#3973F4" p-id="8605"></path><path d="M956.429932 942.497959H71.053061c-21.594558 0-39.706122-18.111565-39.706122-39.706122v-184.59864c0-21.594558 18.111565-39.706122 39.706122-39.706122h885.376871c21.594558 0 39.706122 18.111565 39.706122 39.706122v184.59864c0 22.291156-18.111565 39.706122-39.706122 39.706122z" fill="#3973F4" p-id="8606"></path><path d="M144.195918 678.487075h686.846259c15.32517 0 28.560544 12.538776 28.560544 27.863945v207.586395c0 15.32517-12.538776 28.560544-28.560544 28.560544H59.210884c-15.32517 0-28.560544-12.538776-28.560544-28.560544v-207.586395c0-15.32517 12.538776-27.863946 28.560544-27.863945h18.808164" fill="#6097FD" p-id="8607"></path><path d="M356.294232 767.308327m-7.881114 7.881114a11.145578 11.145578 0 1 0 15.762228-15.762228 11.145578 11.145578 0 1 0-15.762228 15.762228Z" fill="#3973F4" p-id="8608"></path><path d="M356.358966 817.430639m-7.881114 7.881114a11.145578 11.145578 0 1 0 15.762228-15.762227 11.145578 11.145578 0 1 0-15.762228 15.762227Z" fill="#3973F4" p-id="8609"></path><path d="M355.927075 867.070259m-7.881114 7.881113a11.145578 11.145578 0 1 0 15.762228-15.762227 11.145578 11.145578 0 1 0-15.762228 15.762227Z" fill="#3973F4" p-id="8610"></path><path d="M406.31902 794.44985m-7.881114 7.881114a11.145578 11.145578 0 1 0 15.762228-15.762228 11.145578 11.145578 0 1 0-15.762228 15.762228Z" fill="#3973F4" p-id="8611"></path><path d="M406.38868 844.577088m-7.881114 7.881114a11.145578 11.145578 0 1 0 15.762228-15.762228 11.145578 11.145578 0 1 0-15.762228 15.762228Z" fill="#3973F4" p-id="8612"></path><path d="M456.545823 767.182939m-7.881114 7.881114a11.145578 11.145578 0 1 0 15.762228-15.762228 11.145578 11.145578 0 1 0-15.762228 15.762228Z" fill="#3973F4" p-id="8613"></path><path d="M456.606476 817.305252m-7.881114 7.881114a11.145578 11.145578 0 1 0 15.762228-15.762228 11.145578 11.145578 0 1 0-15.762228 15.762228Z" fill="#3973F4" p-id="8614"></path><path d="M456.181551 866.937905m-7.881114 7.881114a11.145578 11.145578 0 1 0 15.762228-15.762228 11.145578 11.145578 0 1 0-15.762228 15.762228Z" fill="#3973F4" p-id="8615"></path><path d="M506.083837 794.807156m-7.881114 7.881114a11.145578 11.145578 0 1 0 15.762228-15.762228 11.145578 11.145578 0 1 0-15.762228 15.762228Z" fill="#3973F4" p-id="8616"></path><path d="M506.148571 844.93932m-7.881114 7.881114a11.145578 11.145578 0 1 0 15.762228-15.762228 11.145578 11.145578 0 1 0-15.762228 15.762228Z" fill="#3973F4" p-id="8617"></path><path d="M556.303673 767.533279m-7.881113 7.881114a11.145578 11.145578 0 1 0 15.762227-15.762228 11.145578 11.145578 0 1 0-15.762227 15.762228Z" fill="#3973F4" p-id="8618"></path><path d="M556.373333 817.667483m-7.881114 7.881114a11.145578 11.145578 0 1 0 15.762228-15.762228 11.145578 11.145578 0 1 0-15.762228 15.762228Z" fill="#3973F4" p-id="8619"></path><path d="M555.948408 867.300136m-7.881114 7.881114a11.145578 11.145578 0 1 0 15.762228-15.762228 11.145578 11.145578 0 1 0-15.762228 15.762228Z" fill="#3973F4" p-id="8620"></path><path d="M606.333388 794.679728m-7.881114 7.881114a11.145578 11.145578 0 1 0 15.762228-15.762228 11.145578 11.145578 0 1 0-15.762228 15.762228Z" fill="#3973F4" p-id="8621"></path><path d="M606.403048 844.806966m-7.881114 7.881114a11.145578 11.145578 0 1 0 15.762228-15.762228 11.145578 11.145578 0 1 0-15.762228 15.762228Z" fill="#3973F4" p-id="8622"></path><path d="M656.565116 767.407891m-7.881114 7.881114a11.145578 11.145578 0 1 0 15.762228-15.762228 11.145578 11.145578 0 1 0-15.762228 15.762228Z" fill="#3973F4" p-id="8623"></path><path d="M656.632735 817.533089m-7.881114 7.881114a11.145578 11.145578 0 1 0 15.762228-15.762228 11.145578 11.145578 0 1 0-15.762228 15.762228Z" fill="#3973F4" p-id="8624"></path><path d="M656.200844 867.162857m-7.881114 7.881114a11.145578 11.145578 0 1 0 15.762228-15.762228 11.145578 11.145578 0 1 0-15.762228 15.762228Z" fill="#3973F4" p-id="8625"></path><path d="M706.587864 794.547374m-7.881114 7.881114a11.145578 11.145578 0 1 0 15.762228-15.762228 11.145578 11.145578 0 1 0-15.762228 15.762228Z" fill="#3973F4" p-id="8626"></path><path d="M706.657524 844.674612m-7.881114 7.881114a11.145578 11.145578 0 1 0 15.762228-15.762228 11.145578 11.145578 0 1 0-15.762228 15.762228Z" fill="#3973F4" p-id="8627"></path><path d="M756.819592 767.275537m-7.881114 7.881114a11.145578 11.145578 0 1 0 15.762228-15.762228 11.145578 11.145578 0 1 0-15.762228 15.762228Z" fill="#3973F4" p-id="8628"></path><path d="M756.882286 817.402776m-7.881114 7.881113a11.145578 11.145578 0 1 0 15.762228-15.762227 11.145578 11.145578 0 1 0-15.762228 15.762227Z" fill="#3973F4" p-id="8629"></path><path d="M756.457361 867.035429m-7.881114 7.881114a11.145578 11.145578 0 1 0 15.762227-15.762228 11.145578 11.145578 0 1 0-15.762227 15.762228Z" fill="#3973F4" p-id="8630"></path><path d="M174.846259 821.986395m-54.334694 0a54.334694 54.334694 0 1 0 108.669387 0 54.334694 54.334694 0 1 0-108.669387 0Z" fill="#3973F4" p-id="8631"></path></svg>