<svg xmlns="http://www.w3.org/2000/svg" xmlns:xlink="http://www.w3.org/1999/xlink" aria-hidden="true" role="img" width="1em" height="1em" preserveAspectRatio="xMidYMid meet" viewBox="0 0 256 256"><circle cx="88" cy="108" r="52" opacity=".2" fill="currentColor"/><path d="M121.199 157.948a60 60 0 1 0-66.397 0A96.215 96.215 0 0 0 9.455 192.79a8 8 0 1 0 13.083 9.21a80.017 80.017 0 0 1 130.921-.004a8 8 0 1 0 13.082-9.212a96.215 96.215 0 0 0-45.342-34.837zM44 108a44 44 0 1 1 44 44a44.05 44.05 0 0 1-44-44z" fill="currentColor"/><path d="M248.063 192.785a96.214 96.214 0 0 0-45.343-34.837a60 60 0 0 0-49.474-107.712a8 8 0 0 0 4.333 15.402A44.006 44.006 0 1 1 169.522 152a8 8 0 0 0 0 16a80.168 80.168 0 0 1 65.46 33.997a8 8 0 0 0 13.081-9.212z" fill="currentColor"/></svg>
