<?xml version="1.0" standalone="no"?><!DOCTYPE svg PUBLIC "-//W3C//DTD SVG 1.1//EN" "http://www.w3.org/Graphics/SVG/1.1/DTD/svg11.dtd"><svg t="1635146968791" class="icon" viewBox="0 0 1194 1024" version="1.1" xmlns="http://www.w3.org/2000/svg" p-id="14289" xmlns:xlink="http://www.w3.org/1999/xlink" width="18.65625" height="16"><defs><style type="text/css"></style></defs><path d="M1185.068626 1023.829475h-255.786844s56.017319-276.761366-123.630308-422.218817c476.616153 21.145046 379.417152 422.218818 379.417152 422.218817zM771.034988 517.627311a149.976353 149.976353 0 0 1-127.893423-70.000333 495.288593 495.288593 0 0 0 63.776187-239.92806 251.608993 251.608993 0 0 0-63.776187-157.735221 172.997169 172.997169 0 0 1 127.893423-48.855287c191.669609 0 191.669609 206.590508 191.669608 206.590508s0 309.928393-191.669608 309.928393z m-341.049126 0c-191.669609 0-191.669609-309.928393-191.669609-309.928393s0-206.590508 191.669609-206.590508 191.669609 206.590508 191.669609 206.590508 0 309.928393-191.669609 309.928393z m414.033639 506.202164H8.449143s-104.019983-424.350375 417.955703-424.350374 417.614654 424.350375 417.614655 424.350374z" p-id="14290" fill="#369f6a"></path></svg>